ply
format ascii 1.0
element vertex 74
property float x
property float y
property float z
property uchar red
property uchar green
property uchar blue
end_header
49323 49323 49323 6 10 6
48647 48647 48647 6 5 6
47972 47972 47972 7 7 7
47296 47296 47296 6 15 6
46620 46620 46620 6 9 6
45945 45945 45945 3 0 3
45269 45269 45269 3 9 3
44593 44593 44593 3 4 3
43918 43918 43918 3 3 3
43242 43242 43242 6 10 6
42566 42566 42566 6 6 6
41891 41891 41891 6 15 6
41215 41215 41215 3 0 3
40539 40539 40539 3 9 3
39864 39864 39864 3 8 3
39188 39188 39188 6 9 6
38512 38512 38512 3 4 3
37837 37837 37837 6 5 6
37161 37161 37161 7 7 7
36485 36485 36485 6 8 6
35810 35810 35810 6 1 6
35134 35134 35134 6 10 6
34458 34458 34458 6 6 6
33783 33783 33783 6 15 6
33107 33107 33107 6 9 6
32431 32431 32431 7 2 7
31756 31756 31756 6 5 6
31080 31080 31080 6 1 6
30404 30404 30404 6 14 6
29729 29729 29729 6 12 6
29053 29053 29053 6 11 6
28377 28377 28377 6 15 6
27702 27702 27702 6 4 6
27026 27026 27026 6 6 6
26350 26350 26350 6 5 6
25675 25675 25675 6 8 6
24999 24999 24999 6 10 6
24323 24323 24323 7 3 7
23648 23648 23648 6 15 6
22972 22972 22972 6 9 6
22296 22296 22296 6 1 6
21621 21621 21621 6 10 6
20945 20945 20945 7 2 7
20269 20269 20269 6 5 6
19594 19594 19594 6 9 6
18918 18918 18918 6 15 6
18242 18242 18242 6 6 6
17567 17567 17567 6 10 6
16891 16891 16891 2 0 2
16215 16215 16215 3 10 3
15540 15540 15540 4 7 4
14864 14864 14864 4 1 4
14188 14188 14188 4 12 4
13513 13513 13513 4 6 4
12837 12837 12837 2 0 2
12161 12161 12161 4 5 4
11486 11486 11486 4 8 4
10810 10810 10810 5 4 5
10134 10134 10134 2 0 2
9459 9459 9459 5 3 5
8783 8783 8783 4 9 4
8107 8107 8107 2 0 2
7432 7432 7432 5 3 5
6756 6756 6756 4 9 4
6080 6080 6080 4 8 4
5405 5405 5405 5 4 5
4729 4729 4729 4 5 4
4053 4053 4053 4 14 4
3378 3378 3378 4 15 4
2702 2702 2702 5 15 5
2026 2026 2026 5 3 5
1351 1351 1351 4 9 4
675 675 675 4 8 4
0 0 0 5 4 5
