ply
format ascii 1.0
element vertex 844
property float x
property float y
property float z
property uchar red
property uchar green
property uchar blue
end_header
146 146 1 6 10 6
144 144 1 6 5 6
142 142 1 7 7 7
140 140 1 6 15 6
138 138 1 6 9 6
136 136 1 3 0 3
134 134 1 3 9 3
132 132 1 3 4 3
130 130 1 3 3 3
128 128 1 6 10 6
126 126 1 6 6 6
124 124 1 6 15 6
122 122 1 3 0 3
120 120 1 3 9 3
118 118 1 3 8 3
116 116 1 6 9 6
114 114 1 3 4 3
112 112 1 6 5 6
110 110 1 7 7 7
108 108 1 6 8 6
106 106 1 6 1 6
104 104 1 6 10 6
102 102 1 6 6 6
100 100 1 6 15 6
98 98 1 6 9 6
96 96 1 7 2 7
94 94 1 6 5 6
92 92 1 6 1 6
90 90 1 6 14 6
88 88 1 6 12 6
86 86 1 6 11 6
84 84 1 6 15 6
82 82 1 6 4 6
80 80 1 6 6 6
78 78 1 6 5 6
76 76 1 6 8 6
74 74 1 6 10 6
72 72 1 7 3 7
70 70 1 6 15 6
68 68 1 6 9 6
66 66 1 6 1 6
64 64 1 6 10 6
62 62 1 7 2 7
60 60 1 6 5 6
58 58 1 6 9 6
56 56 1 6 15 6
54 54 1 6 6 6
52 52 1 6 10 6
50 50 1 2 0 2
48 48 1 3 10 3
46 46 1 4 7 4
44 44 1 4 1 4
42 42 1 4 12 4
40 40 1 4 6 4
38 38 1 2 0 2
36 36 1 4 5 4
34 34 1 4 8 4
32 32 1 5 4 5
30 30 1 2 0 2
28 28 1 5 3 5
26 26 1 4 9 4
24 24 1 2 0 2
22 22 1 5 3 5
20 20 1 4 9 4
18 18 1 4 8 4
16 16 1 5 4 5
14 14 1 4 5 4
12 12 1 4 14 4
10 10 1 4 15 4
8 8 1 5 15 5
6 6 1 5 3 5
4 4 1 4 9 4
2 2 1 4 8 4
0 0 1 5 4 5
271 98 1 7 1 7
939 395 1 6 11 6
745 803 1 1 3 1
333 26 1 5 9 5
211 418 1 4 9 4
849 502 1 0 15 0
633 434 1 1 5 1
702 429 1 2 5 2
805 906 1 2 4 2
83 822 1 4 8 4
256 863 1 1 11 1
493 880 1 6 10 6
378 27 1 7 9 7
689 791 1 7 7 7
653 823 1 3 9 3
523 785 1 1 10 1
75 87 1 7 1 7
531 790 1 0 3 0
631 937 1 1 0 1
262 631 1 1 15 1
884 969 1 2 12 2
615 574 1 7 0 7
741 385 1 3 1 3
253 472 1 3 15 3
297 414 1 2 8 2
501 435 1 6 8 6
663 405 1 5 11 5
395 652 1 0 10 0
301 555 1 7 9 7
561 338 1 4 9 4
705 431 1 3 8 3
979 112 1 3 12 3
30 645 1 2 4 2
65 506 1 6 14 6
257 66 1 6 12 6
78 597 1 5 4 5
648 757 1 1 11 1
745 340 1 2 3 2
865 279 1 4 2 4
555 809 1 0 4 0
319 828 1 5 15 5
467 512 1 7 14 7
139 254 1 2 13 2
88 817 1 7 5 7
488 713 1 2 3 2
417 56 1 4 6 4
981 237 1 2 6 2
964 425 1 0 4 0
777 453 1 0 3 0
657 748 1 7 4 7
431 175 1 0 7 0
482 671 1 7 12 7
201 570 1 1 14 1
811 722 1 0 8 0
297 32 1 3 1 3
531 277 1 2 13 2
473 79 1 4 11 4
880 639 1 0 11 0
221 204 1 1 13 1
152 715 1 2 10 2
101 414 1 7 5 7
690 471 1 5 5 5
508 607 1 3 2 3
247 236 1 7 9 7
845 810 1 5 5 5
83 486 1 1 9 1
489 91 1 5 3 5
949 925 1 3 12 3
960 315 1 6 3 6
631 540 1 7 13 7
863 875 1 4 14 4
19 305 1 0 14 0
954 203 1 4 1 4
18 113 1 0 5 0
395 934 1 4 13 4
257 17 1 3 4 3
775 742 1 6 5 6
665 799 1 0 9 0
217 624 1 1 7 1
709 569 1 4 12 4
41 859 1 6 9 6
827 400 1 5 0 5
695 59 1 5 7 5
869 53 1 3 13 3
922 199 1 7 4 7
943 12 1 1 2 1
175 857 1 2 6 2
703 275 1 2 7 2
709 899 1 5 4 5
215 769 1 1 12 1
539 535 1 5 15 5
989 313 1 4 15 4
501 672 1 7 2 7
187 722 1 4 11 4
802 19 1 3 11 3
582 663 1 4 8 4
23 587 1 4 0 4
130 839 1 5 9 5
234 13 1 5 6 5
869 40 1 7 12 7
271 779 1 5 6 5
17 953 1 2 14 2
598 879 1 4 1 4
351 264 1 4 10 4
75 296 1 4 4 4
474 147 1 1 13 1
973 818 1 2 15 2
908 773 1 1 5 1
74 125 1 0 14 0
615 839 1 6 11 6
405 281 1 6 15 6
562 461 1 0 10 0
818 13 1 4 1 4
979 313 1 0 15 0
329 998 1 2 2 2
205 63 1 5 1 5
448 65 1 3 3 3
347 249 1 4 8 4
963 405 1 3 15 3
819 69 1 3 9 3
115 435 1 7 5 7
367 278 1 3 7 3
213 35 1 4 3 4
483 366 1 3 10 3
464 747 1 3 12 3
492 553 1 5 12 5
336 837 1 3 0 3
157 446 1 2 8 2
891 20 1 5 4 5
743 311 1 6 1 6
690 427 1 4 15 4
194 919 1 0 3 0
715 12 1 5 4 5
473 240 1 2 12 2
426 955 1 5 13 5
709 243 1 4 9 4
883 898 1 0 4 0
789 217 1 0 5 0
216 897 1 7 14 7
907 47 1 7 8 7
484 577 1 3 10 3
360 859 1 3 12 3
993 765 1 5 5 5
680 743 1 7 9 7
968 895 1 7 14 7
479 540 1 7 4 7
667 841 1 6 10 6
583 593 1 6 11 6
525 632 1 4 4 4
365 766 1 3 3 3
742 423 1 0 4 0
21 187 1 7 15 7
848 83 1 1 0 1
699 450 1 1 9 1
4 405 1 4 4 4
514 305 1 2 13 2
342 191 1 3 15 3
104 703 1 0 9 0
561 600 1 4 13 4
719 222 1 1 14 1
220 325 1 0 7 0
473 376 1 1 2 1
891 511 1 4 4 4
505 88 1 6 8 6
761 325 1 0 10 0
787 184 1 7 3 7
701 550 1 0 10 0
26 327 1 6 15 6
897 838 1 7 1 7
597 853 1 7 3 7
865 206 1 2 2 2
71 140 1 6 6 6
762 309 1 0 2 0
789 567 1 1 15 1
282 713 1 3 6 3
650 327 1 1 5 1
221 884 1 1 7 1
985 342 1 3 1 3
294 753 1 7 3 7
502 417 1 0 5 0
34 537 1 6 2 6
443 486 1 1 0 1
656 595 1 7 4 7
589 829 1 7 7 7
589 863 1 7 11 7
615 938 1 3 4 3
202 781 1 7 4 7
873 687 1 3 8 3
528 763 1 1 8 1
964 499 1 6 7 6
927 696 1 6 5 6
414 229 1 3 14 3
924 111 1 1 8 1
805 992 1 3 13 3
572 847 1 0 8 0
889 420 1 3 1 3
22 525 1 2 5 2
803 682 1 2 6 2
115 31 1 5 13 5
417 107 1 7 9 7
349 67 1 2 7 2
119 674 1 3 10 3
300 437 1 6 14 6
427 631 1 7 10 7
543 516 1 2 11 2
843 39 1 6 2 6
299 49 1 4 3 4
688 713 1 3 9 3
40 405 1 4 12 4
419 57 1 0 3 0
763 487 1 7 1 7
477 464 1 7 3 7
989 647 1 7 12 7
525 531 1 6 0 6
956 277 1 0 12 0
483 838 1 4 15 4
865 603 1 6 14 6
517 83 1 5 7 5
671 990 1 2 11 2
817 183 1 3 14 3
115 156 1 5 7 5
189 465 1 5 0 5
361 491 1 5 3 5
883 73 1 5 1 5
167 174 1 2 9 2
117 434 1 6 12 6
807 757 1 1 13 1
339 671 1 5 14 5
622 397 1 2 14 2
811 677 1 7 11 7
547 503 1 5 11 5
388 269 1 6 4 6
461 787 1 2 13 2
775 151 1 2 12 2
274 775 1 7 15 7
832 747 1 2 13 2
183 552 1 5 7 5
882 839 1 1 0 1
89 962 1 6 7 6
41 260 1 2 11 2
963 620 1 2 11 2
24 445 1 2 7 2
28 617 1 5 4 5
177 179 1 1 1 1
877 753 1 4 11 4
701 987 1 4 1 4
584 901 1 5 14 5
239 671 1 3 10 3
828 331 1 7 0 7
267 58 1 7 11 7
74 717 1 0 15 0
765 146 1 2 12 2
219 745 1 3 15 3
515 618 1 3 13 3
878 435 1 0 8 0
272 653 1 3 11 3
266 105 1 6 0 6
923 298 1 0 9 0
219 355 1 2 14 2
775 410 1 3 2 3
182 357 1 6 0 6
441 359 1 1 5 1
989 230 1 3 10 3
195 202 1 5 11 5
225 15 1 2 14 2
229 160 1 6 2 6
943 363 1 6 5 6
879 657 1 7 15 7
714 763 1 2 3 2
700 489 1 1 9 1
998 67 1 3 1 3
129 747 1 7 5 7
27 118 1 0 4 0
835 413 1 0 9 0
503 836 1 2 10 2
796 589 1 5 4 5
354 173 1 7 6 7
273 194 1 0 12 0
705 659 1 3 5 3
224 823 1 5 0 5
895 622 1 1 4 1
415 709 1 4 10 4
993 870 1 1 10 1
634 899 1 4 12 4
507 184 1 1 5 1
629 416 1 7 4 7
483 261 1 4 11 4
201 155 1 5 1 5
839 912 1 3 8 3
619 629 1 0 14 0
749 192 1 3 6 3
190 713 1 3 0 3
423 454 1 7 6 7
416 705 1 6 0 6
154 121 1 5 6 5
529 800 1 1 2 1
361 497 1 1 1 1
283 57 1 3 1 3
85 64 1 0 4 0
127 534 1 5 14 5
259 490 1 5 6 5
396 957 1 5 15 5
383 732 1 6 6 6
303 993 1 3 8 3
439 567 1 5 8 5
641 501 1 3 6 3
691 311 1 1 6 1
533 791 1 6 12 6
811 408 1 4 14 4
62 745 1 1 12 1
220 509 1 4 9 4
167 176 1 7 5 7
73 56 1 5 3 5
66 385 1 3 7 3
151 233 1 5 14 5
686 887 1 7 15 7
31 5 1 2 6 2
311 698 1 1 10 1
235 610 1 7 12 7
333 404 1 5 10 5
767 162 1 6 13 6
671 419 1 2 5 2
800 65 1 6 15 6
796 273 1 6 9 6
733 328 1 0 14 0
955 436 1 2 0 2
88 621 1 5 8 5
890 437 1 4 6 4
390 607 1 5 14 5
379 741 1 5 6 5
61 97 1 1 6 1
593 946 1 1 5 1
891 30 1 2 15 2
815 416 1 2 2 2
363 293 1 0 11 0
116 525 1 6 2 6
521 469 1 2 12 2
993 874 1 4 4 4
643 64 1 4 7 4
151 905 1 1 5 1
614 285 1 4 5 4
771 559 1 6 4 6
767 633 1 7 3 7
189 566 1 4 7 4
162 463 1 0 14 0
243 111 1 1 4 1
810 413 1 2 0 2
807 305 1 6 13 6
771 849 1 1 12 1
496 63 1 7 10 7
374 625 1 4 6 4
574 625 1 7 3 7
751 608 1 0 2 0
756 179 1 7 9 7
104 857 1 1 11 1
0 755 1 6 2 6
420 487 1 0 8 0
244 777 1 5 11 5
278 199 1 1 11 1
249 133 1 4 14 4
303 615 1 6 3 6
214 761 1 2 6 2
268 321 1 3 6 3
358 941 1 2 11 2
91 916 1 3 5 3
622 41 1 3 8 3
351 64 1 4 5 4
463 586 1 5 15 5
501 333 1 3 3 3
961 618 1 4 1 4
479 262 1 0 13 0
749 51 1 3 14 3
923 211 1 0 11 0
523 885 1 3 15 3
625 779 1 2 12 2
125 670 1 7 7 7
253 612 1 6 7 6
356 403 1 1 4 1
403 721 1 7 10 7
455 702 1 5 10 5
105 667 1 7 8 7
109 845 1 2 10 2
386 925 1 7 8 7
822 717 1 4 11 4
666 679 1 4 9 4
276 171 1 2 12 2
625 425 1 2 2 2
822 149 1 1 4 1
461 47 1 7 12 7
106 275 1 5 3 5
856 629 1 0 0 0
307 885 1 7 11 7
379 701 1 3 4 3
508 653 1 0 8 0
717 332 1 0 14 0
676 749 1 0 13 0
924 293 1 2 13 2
771 240 1 3 9 3
294 731 1 2 10 2
832 71 1 3 5 3
320 625 1 7 6 7
583 841 1 1 15 1
69 298 1 6 0 6
157 654 1 6 3 6
975 104 1 6 5 6
333 701 1 3 6 3
595 269 1 7 8 7
498 409 1 5 0 5
432 727 1 4 7 4
449 103 1 7 1 7
741 584 1 2 15 2
504 931 1 4 11 4
787 490 1 0 5 0
859 776 1 2 1 2
167 906 1 5 7 5
653 444 1 1 3 1
279 589 1 0 13 0
719 288 1 0 5 0
714 679 1 0 1 0
731 82 1 6 2 6
725 128 1 2 4 2
49 441 1 2 5 2
283 826 1 5 15 5
616 45 1 5 9 5
257 396 1 7 7 7
158 601 1 1 15 1
453 239 1 3 5 3
302 301 1 4 0 4
687 447 1 0 7 0
615 309 1 3 4 3
429 974 1 1 13 1
649 874 1 4 11 4
277 490 1 2 14 2
165 670 1 3 13 3
937 356 1 1 1 1
245 238 1 1 7 1
257 819 1 4 6 4
137 827 1 4 1 4
983 206 1 0 0 0
99 98 1 7 2 7
384 309 1 4 12 4
820 345 1 4 11 4
956 223 1 3 0 3
653 381 1 1 10 1
419 536 1 0 12 0
992 261 1 3 11 3
268 929 1 6 0 6
789 406 1 1 12 1
963 704 1 4 11 4
770 259 1 1 12 1
827 729 1 6 14 6
665 380 1 7 15 7
275 705 1 3 2 3
980 515 1 5 11 5
43 614 1 2 11 2
349 169 1 0 15 0
445 446 1 0 9 0
301 52 1 4 9 4
228 209 1 7 0 7
997 63 1 4 15 4
675 541 1 7 9 7
189 567 1 5 14 5
549 704 1 0 6 0
344 211 1 1 1 1
749 192 1 4 11 4
491 912 1 6 0 6
794 913 1 5 0 5
522 501 1 7 15 7
622 67 1 5 9 5
863 448 1 6 6 6
140 5 1 0 0 0
19 22 1 6 13 6
805 874 1 6 10 6
368 759 1 3 8 3
999 720 1 0 15 0
60 841 1 6 0 6
619 835 1 2 12 2
91 846 1 4 15 4
115 402 1 1 13 1
687 721 1 5 13 5
879 854 1 3 1 3
283 424 1 6 11 6
989 141 1 7 7 7
411 684 1 6 0 6
120 601 1 3 4 3
746 801 1 7 0 7
110 723 1 3 8 3
328 807 1 6 3 6
867 716 1 5 3 5
755 961 1 1 4 1
175 162 1 7 8 7
456 935 1 2 5 2
83 715 1 3 10 3
77 360 1 3 14 3
916 237 1 0 3 0
739 663 1 5 6 5
286 619 1 0 13 0
799 683 1 4 11 4
226 827 1 0 12 0
868 155 1 1 7 1
295 582 1 0 13 0
707 917 1 7 11 7
771 738 1 3 2 3
221 501 1 7 1 7
758 321 1 2 12 2
825 113 1 7 10 7
856 95 1 2 13 2
672 157 1 3 13 3
665 737 1 0 4 0
179 913 1 5 12 5
885 857 1 2 8 2
181 984 1 1 14 1
647 372 1 7 9 7
855 930 1 0 6 0
18 853 1 6 5 6
459 214 1 5 15 5
260 669 1 2 8 2
442 891 1 5 5 5
77 352 1 6 0 6
109 612 1 6 5 6
177 785 1 0 0 0
428 379 1 5 15 5
801 544 1 7 2 7
628 717 1 3 0 3
365 886 1 3 15 3
538 741 1 1 2 1
740 603 1 3 4 3
475 404 1 0 8 0
54 305 1 1 3 1
835 924 1 3 5 3
827 362 1 2 11 2
173 367 1 7 5 7
306 233 1 4 10 4
715 571 1 4 5 4
429 90 1 3 3 3
786 805 1 5 15 5
747 685 1 4 1 4
381 182 1 3 5 3
995 102 1 7 8 7
662 461 1 3 3 3
285 699 1 5 6 5
409 737 1 6 2 6
7 885 1 6 4 6
668 563 1 0 11 0
291 2 1 5 7 5
997 786 1 6 4 6
147 925 1 1 0 1
851 702 1 7 11 7
41 136 1 7 10 7
994 733 1 2 0 2
935 195 1 4 2 4
509 388 1 6 6 6
621 939 1 3 1 3
237 320 1 4 12 4
566 121 1 4 15 4
51 898 1 7 2 7
239 753 1 4 3 4
249 312 1 2 6 2
97 445 1 0 11 0
953 612 1 3 8 3
314 233 1 0 9 0
847 541 1 2 14 2
223 597 1 0 7 0
187 762 1 2 3 2
605 988 1 0 8 0
89 980 1 7 3 7
285 932 1 2 3 2
480 819 1 1 5 1
379 927 1 1 8 1
592 399 1 7 11 7
656 213 1 5 14 5
761 117 1 2 9 2
540 21 1 7 4 7
92 505 1 2 5 2
83 172 1 2 7 2
890 491 1 4 12 4
85 101 1 2 12 2
903 419 1 1 14 1
603 952 1 2 2 2
237 266 1 5 4 5
164 703 1 2 12 2
333 709 1 5 0 5
681 291 1 2 1 2
487 697 1 7 8 7
467 356 1 5 6 5
685 910 1 3 3 3
478 459 1 1 14 1
381 116 1 4 13 4
66 791 1 6 7 6
653 464 1 2 12 2
589 160 1 4 2 4
94 531 1 1 7 1
451 933 1 1 5 1
342 873 1 7 15 7
344 561 1 7 1 7
629 396 1 1 3 1
327 179 1 3 0 3
303 521 1 0 5 0
196 715 1 3 15 3
22 905 1 0 11 0
707 590 1 4 0 4
246 81 1 6 4 6
59 574 1 3 3 3
165 6 1 0 6 0
864 811 1 4 10 4
306 163 1 2 14 2
806 997 1 4 7 4
963 723 1 7 14 7
157 971 1 7 11 7
507 497 1 3 13 3
111 534 1 4 10 4
195 932 1 3 10 3
165 279 1 2 14 2
473 916 1 6 4 6
449 228 1 6 12 6
751 859 1 3 15 3
963 922 1 4 9 4
424 439 1 6 4 6
826 601 1 5 7 5
168 845 1 3 5 3
133 390 1 4 3 4
369 149 1 2 7 2
653 41 1 7 10 7
931 804 1 4 5 4
483 901 1 2 15 2
486 685 1 3 10 3
755 801 1 0 6 0
455 306 1 1 10 1
3 317 1 3 2 3
756 325 1 6 15 6
551 118 1 7 10 7
883 236 1 7 5 7
143 940 1 3 10 3
890 271 1 0 4 0
473 448 1 2 1 2
639 3 1 0 7 0
257 251 1 4 15 4
598 641 1 0 15 0
943 563 1 6 13 6
669 430 1 3 12 3
6 177 1 2 13 2
464 993 1 0 15 0
258 23 1 0 6 0
15 186 1 5 11 5
823 999 1 7 12 7
535 353 1 6 1 6
133 888 1 7 9 7
900 487 1 0 10 0
832 989 1 5 7 5
415 406 1 0 14 0
625 672 1 2 12 2
225 99 1 2 12 2
837 371 1 6 14 6
187 207 1 5 2 5
645 690 1 6 0 6
113 968 1 0 8 0
401 815 1 5 2 5
146 259 1 3 8 3
231 121 1 5 12 5
221 679 1 7 14 7
727 846 1 6 8 6
164 251 1 3 11 3
153 533 1 0 4 0
599 652 1 4 2 4
833 389 1 1 9 1
595 661 1 6 5 6
553 385 1 5 3 5
90 109 1 0 8 0
370 9 1 1 2 1
363 820 1 3 8 3
6 753 1 3 13 3
673 65 1 0 3 0
237 632 1 0 4 0
376 667 1 2 1 2
276 211 1 7 10 7
100 205 1 0 14 0
715 619 1 0 7 0
60 179 1 5 13 5
275 879 1 2 14 2
613 451 1 3 12 3
737 419 1 1 4 1
719 844 1 3 4 3
5 579 1 7 0 7
331 390 1 1 8 1
903 361 1 5 15 5
439 649 1 2 9 2
300 807 1 7 7 7
800 63 1 7 1 7
923 346 1 0 3 0
31 928 1 7 3 7
223 56 1 2 4 2
189 472 1 7 2 7
677 912 1 3 10 3
711 790 1 3 12 3
717 590 1 4 12 4
66 375 1 3 5 3
872 239 1 3 12 3
899 858 1 0 0 0
980 303 1 2 7 2
559 688 1 6 3 6
122 245 1 2 15 2
972 261 1 5 14 5
576 639 1 2 2 2
862 271 1 1 10 1
136 633 1 4 11 4
29 84 1 2 10 2
555 497 1 2 12 2
263 883 1 2 15 2
984 193 1 1 13 1
333 771 1 5 8 5
16 719 1 1 4 1
638 375 1 3 9 3
197 753 1 1 14 1
587 221 1 3 11 3
261 349 1 2 2 2
319 498 1 3 3 3
18 983 1 7 5 7
97 288 1 2 10 2
325 773 1 0 0 0
269 635 1 7 2 7
180 619 1 6 1 6
872 281 1 5 10 5
851 182 1 4 13 4
343 363 1 2 13 2
163 410 1 2 1 2
120 445 1 5 12 5
994 933 1 4 1 4
319 587 1 6 11 6
15 937 1 0 11 0
338 831 1 0 9 0
712 31 1 6 4 6
403 289 1 6 9 6
953 731 1 2 3 2
613 797 1 1 4 1
159 147 1 1 10 1
994 269 1 7 6 7
106 633 1 0 8 0
194 429 1 6 13 6
253 639 1 2 0 2
742 331 1 7 10 7
557 166 1 3 12 3
877 564 1 1 5 1
637 452 1 6 13 6
647 18 1 5 15 5
852 627 1 1 8 1
438 85 1 0 15 0
308 853 1 3 5 3
813 78 1 5 6 5
175 506 1 2 1 2
433 470 1 5 0 5
39 799 1 1 6 1
542 985 1 4 3 4
231 266 1 7 6 7
775 431 1 6 2 6
220 325 1 0 14 0
395 209 1 7 14 7
671 250 1 2 14 2
814 843 1 2 2 2
367 29 1 3 9 3
483 932 1 2 6 2
105 987 1 4 0 4
869 259 1 2 0 2
477 396 1 0 3 0
578 135 1 4 4 4
407 580 1 5 3 5
97 835 1 0 15 0
779 900 1 5 1 5
245 27 1 0 13 0
862 653 1 6 14 6
329 845 1 1 3 1
